HIERARCHY
ROOT joint_Root
{
	OFFSET 0.0 0.0 0.0
	CHANNELS 6 Xposition Yposition Zposition Zrotation Xrotation Yrotation 
	JOINT Hips
	{
		OFFSET 4.5925 91.4895 -427.239
		CHANNELS 6 Xposition Yposition Zposition Zrotation Xrotation Yrotation 
		JOINT Spine
		{
			OFFSET 15.7357 0.0 0.0
			CHANNELS 6 Xposition Yposition Zposition Zrotation Xrotation Yrotation 
			JOINT Chest
			{
				OFFSET 8.98455 -0.406207 0.0
				CHANNELS 6 Xposition Yposition Zposition Zrotation Xrotation Yrotation 
				JOINT Neck
				{
					OFFSET 16.3773 0.0 0.0
					CHANNELS 6 Xposition Yposition Zposition Zrotation Xrotation Yrotation 
					JOINT Head
					{
						OFFSET 6.45672 0.0 0.0
						CHANNELS 6 Xposition Yposition Zposition Zrotation Xrotation Yrotation 
						End Site
						{
							OFFSET 0.0 0.0 0.0
						}
					}
				}
				JOINT Shoulder_L
				{
					OFFSET 12.9942 -0.242716 4.98039
					CHANNELS 6 Xposition Yposition Zposition Zrotation Xrotation Yrotation 
					JOINT UpperArm_L
					{
						OFFSET 5.34809 0.0 0.0
						CHANNELS 6 Xposition Yposition Zposition Zrotation Xrotation Yrotation 
						JOINT LowerArm_L
						{
							OFFSET 24.3286 1.87007e-05 0.0
							CHANNELS 6 Xposition Yposition Zposition Zrotation Xrotation Yrotation 
							JOINT Hand_L
							{
								OFFSET 22.2916 0.0 0.0
								CHANNELS 6 Xposition Yposition Zposition Zrotation Xrotation Yrotation 
								End Site
								{
									OFFSET 0.0 0.0 0.0
								}
							}
						}
					}
				}
				JOINT Shoulder_R
				{
					OFFSET 12.9945 -0.242716 -4.98039
					CHANNELS 6 Xposition Yposition Zposition Zrotation Xrotation Yrotation 
					JOINT UpperArm_R
					{
						OFFSET -5.34813 0.0 0.0
						CHANNELS 6 Xposition Yposition Zposition Zrotation Xrotation Yrotation 
						JOINT LowerArm_R
						{
							OFFSET -24.3289 0.000322201 0.0
							CHANNELS 6 Xposition Yposition Zposition Zrotation Xrotation Yrotation 
							JOINT Hand_R
							{
								OFFSET -22.2915 -0.000108084 0.0
								CHANNELS 6 Xposition Yposition Zposition Zrotation Xrotation Yrotation 
								End Site
								{
									OFFSET 0.0 0.0 0.0
								}
							}
						}
					}
				}
			}
		}
		JOINT UpperLeg_L
		{
			OFFSET -2.19248 -6.46944 0.0
			CHANNELS 6 Xposition Yposition Zposition Zrotation Xrotation Yrotation 
			JOINT LowerLeg_L
			{
				OFFSET 39.0811 0.0 -1.23785e-05
				CHANNELS 6 Xposition Yposition Zposition Zrotation Xrotation Yrotation 
				JOINT Foot_L
				{
					OFFSET 40.9854 0.0 -1.26872e-05
					CHANNELS 6 Xposition Yposition Zposition Zrotation Xrotation Yrotation 
					JOINT Toes_L
					{
						OFFSET 11.7543 0.0 0.0
						CHANNELS 6 Xposition Yposition Zposition Zrotation Xrotation Yrotation 
						End Site
						{
							OFFSET 0.0 0.0 0.0
						}
					}
				}
			}
		}
		JOINT UpperLeg_R
		{
			OFFSET -2.19251 6.46944 0.0
			CHANNELS 6 Xposition Yposition Zposition Zrotation Xrotation Yrotation 
			JOINT LowerLeg_R
			{
				OFFSET -39.0811 -0.00228153 -0.0401928
				CHANNELS 6 Xposition Yposition Zposition Zrotation Xrotation Yrotation 
				JOINT Foot_R
				{
					OFFSET -40.9854 0.0 0.0
					CHANNELS 6 Xposition Yposition Zposition Zrotation Xrotation Yrotation 
					JOINT Toes_R
					{
						OFFSET -11.7543 0.0 0.0
						CHANNELS 6 Xposition Yposition Zposition Zrotation Xrotation Yrotation 
						End Site
						{
							OFFSET 0.0 0.0 0.0
						}
					}
				}
			}
		}
	}
}
MOTION
Frames:	5
Frame Time:	0.0333333
0.000000 0.000000 0.000000 0.000000 0.000000 -0.000000 -1.523470 89.899900 2.597110 89.907300 -2.002310 11.864100 15.735700 0.000005 -0.000001 89.348700 80.285500 -89.612400 8.984550 -0.406207 -0.000000 11.661300 -0.227946 -0.503764 16.377300 -0.000001 -0.000001 6.648620 -4.570620 2.794240 6.456720 -0.000001 -0.000000 -4.638700 -4.678370 1.286540 12.994200 -0.242716 4.980390 -90.967600 4.602560 -78.114700 5.348090 -0.000007 -0.000001 -63.427800 34.052200 -21.495200 24.328600 0.000019 0.000005 9.251470 24.528200 -21.423200 22.291600 -0.000001 0.000005 10.980500 5.236280 1.792620 12.994500 -0.242716 -4.980390 89.236700 9.890830 -85.565000 -5.348130 -0.000001 -0.000004 -63.089400 30.489800 -15.704100 -24.328900 0.000322 -0.000009 2.610700 6.573940 -21.724200 -22.291500 -0.000108 -0.000004 15.267800 5.371830 -2.043350 -2.192480 -6.469440 -0.000000 -174.785000 -9.008250 1.920060 39.081100 -0.000007 -0.000012 -0.264882 0.397141 33.702600 40.985400 -0.000006 -0.000013 -0.281497 4.620650 -73.635100 11.754300 -0.000000 0.000003 -0.000195 -0.001816 -16.646100 -2.192510 6.469440 -0.000001 173.081000 19.947400 -176.615000 -39.081100 -0.002282 -0.040193 -0.198551 0.302919 33.677100 -40.985400 0.000008 0.000006 4.788300 10.733700 -74.876400 -11.754300 -0.000006 -0.000006 -0.001849 -0.026812 -17.663300
0.000000 0.000000 0.000000 0.000000 0.000000 -0.000000 -1.532370 89.890000 2.563910 89.904000 -2.093910 11.945100 15.735700 0.000005 -0.000001 89.271000 80.224200 -89.536900 8.984550 -0.406207 -0.000000 11.783500 -0.255966 -0.505317 16.377300 -0.000001 -0.000001 6.504740 -4.581980 2.792960 6.456720 -0.000001 -0.000000 -4.585700 -4.663530 1.277550 12.994200 -0.242716 4.980390 -90.994100 4.735910 -78.131100 5.348090 -0.000007 -0.000001 -64.114900 32.463700 -20.843800 24.328600 0.000019 0.000005 9.601900 23.727500 -22.803400 22.291600 -0.000001 0.000005 11.212900 5.238280 1.740600 12.994500 -0.242716 -4.980390 89.217100 10.000700 -85.500800 -5.348130 -0.000001 -0.000004 -63.863100 27.860100 -15.062400 -24.328900 0.000322 -0.000009 2.758430 6.376570 -23.461500 -22.291500 -0.000108 -0.000004 15.585700 5.375740 -2.164680 -2.192480 -6.469440 -0.000000 -174.765000 -9.037780 1.965260 39.081100 -0.000007 -0.000012 -0.261951 0.391896 33.760000 40.985400 -0.000006 -0.000013 -0.304942 4.556750 -73.649800 11.754300 -0.000000 0.000003 -0.000198 -0.001834 -16.646700 -2.192510 6.469440 -0.000001 173.051000 19.900600 -176.585000 -39.081100 -0.002282 -0.040193 -0.212523 0.323338 33.722000 -40.985400 0.000008 0.000006 4.670950 10.825700 -74.844700 -11.754300 -0.000006 -0.000006 -0.001896 -0.027409 -17.687600
0.000000 0.000000 0.000000 0.000000 0.000000 -0.000000 -1.545740 89.892100 2.514690 89.868700 -2.209890 12.025900 15.735700 0.000005 -0.000001 89.287500 80.162000 -89.551300 8.984550 -0.406207 -0.000000 11.907900 -0.252093 -0.501245 16.377300 -0.000001 -0.000001 6.401740 -4.608720 2.786190 6.456720 -0.000001 -0.000000 -4.586040 -4.666860 1.291870 12.994200 -0.242716 4.980390 -91.018000 4.854020 -78.141100 5.348090 -0.000007 -0.000001 -65.013800 30.137900 -19.942900 24.328600 0.000019 0.000005 9.944960 22.147800 -24.943600 22.291600 -0.000001 0.000005 11.629400 5.245770 1.544530 12.994500 -0.242716 -4.980390 89.188200 10.046900 -85.356500 -5.348130 -0.000001 -0.000004 -64.635000 25.230100 -14.447600 -24.328900 0.000322 -0.000009 2.609420 5.405700 -25.829400 -22.291500 -0.000108 -0.000004 16.045200 5.377810 -2.229040 -2.192480 -6.469440 -0.000000 -174.689000 -9.125680 2.015540 39.081100 -0.000007 -0.000012 -0.261325 0.390569 33.786400 40.985400 -0.000006 -0.000013 -0.318550 4.542650 -73.633000 11.754300 -0.000000 0.000003 -0.000187 -0.001753 -16.643800 -2.192510 6.469440 -0.000001 173.096000 19.800900 -176.555000 -39.081100 -0.002282 -0.040193 -0.215665 0.328136 33.714700 -40.985400 0.000008 0.000006 4.611490 10.886100 -74.783100 -11.754300 -0.000006 -0.000006 -0.001953 -0.028125 -17.716700
0.000000 0.000000 0.000000 0.000000 0.000000 -0.000000 -1.552620 89.899100 2.445400 89.864900 -2.335400 12.059900 15.735700 0.000005 -0.000001 89.252300 80.118500 -89.529900 8.984550 -0.406207 -0.000000 11.994700 -0.265857 -0.527096 16.377300 -0.000001 -0.000001 6.288340 -4.640220 2.794300 6.456720 -0.000001 -0.000000 -4.544290 -4.634690 1.272100 12.994200 -0.242716 4.980390 -91.048400 4.957290 -78.042500 5.348090 -0.000007 -0.000001 -65.930900 27.259500 -19.071200 24.328600 0.000019 0.000005 10.285200 20.159800 -27.770100 22.291600 -0.000001 0.000005 12.232400 5.251510 1.391850 12.994500 -0.242716 -4.980390 89.159600 10.074000 -85.206200 -5.348130 -0.000001 -0.000004 -65.257500 22.745900 -13.845200 -24.328900 0.000322 -0.000009 2.566900 4.666540 -28.868700 -22.291500 -0.000108 -0.000004 16.739700 5.382620 -2.380260 -2.192480 -6.469440 -0.000000 -174.655000 -9.210360 2.025060 39.081100 -0.000007 -0.000012 -0.264518 0.395448 33.779300 40.985400 -0.000006 -0.000013 -0.324646 4.542280 -73.591800 11.754300 -0.000000 0.000003 -0.000205 -0.001894 -16.649000 -2.192510 6.469440 -0.000001 173.096000 19.781400 -176.580000 -39.081100 -0.002282 -0.040193 -0.226585 0.344636 33.704400 -40.985400 0.000008 0.000006 4.495120 10.984200 -74.691800 -11.754300 -0.000006 -0.000006 -0.001851 -0.026837 -17.664400
0.000000 0.000000 0.000000 0.000000 0.000000 -0.000000 -1.555290 89.911300 2.387800 89.876800 -2.413200 12.094000 15.735700 0.000005 -0.000001 89.196800 80.102000 -89.490300 8.984550 -0.406207 -0.000000 12.027500 -0.285945 -0.556595 16.377300 -0.000001 -0.000001 6.279380 -4.668240 2.762320 6.456720 -0.000001 -0.000000 -4.462230 -4.646630 1.251310 12.994200 -0.242716 4.980390 -91.076100 5.043630 -77.939300 5.348090 -0.000007 -0.000001 -66.329800 24.865300 -18.653000 24.328600 0.000019 0.000005 10.515800 18.144000 -30.799700 22.291600 -0.000001 0.000005 13.384800 5.245770 1.543620 12.994500 -0.242716 -4.980390 89.130900 10.078100 -85.045500 -5.348130 -0.000001 -0.000004 -65.673800 20.491300 -13.343700 -24.328900 0.000322 -0.000009 2.777640 4.416120 -32.223200 -22.291500 -0.000108 -0.000004 17.768500 5.387150 -2.523400 -2.192480 -6.469440 -0.000000 -174.637000 -9.330830 2.050700 39.081100 -0.000007 -0.000012 -0.261616 0.391672 33.741300 40.985400 -0.000006 -0.000013 -0.322653 4.553000 -73.534800 11.754300 -0.000000 0.000003 -0.000200 -0.001851 -16.647400 -2.192510 6.469440 -0.000001 173.058000 19.773100 -176.573000 -39.081100 -0.002282 -0.040193 -0.234282 0.356695 33.665800 -40.985400 0.000008 0.000006 4.388530 11.125000 -74.603600 -11.754300 -0.000006 -0.000006 -0.001912 -0.027609 -17.695700
